<mxfile host="app.diagrams.net" modified="2021-01-25T08:59:57.332Z" agent="5.0 (Macintosh; Intel Mac OS X 10_15_7) AppleWebKit/537.36 (KHTML, like Gecko) Chrome/87.0.4280.141 Safari/537.36" etag="UVIY4mUIPfU-LL-xbPdW" version="14.2.6" type="github">
  <diagram id="aisGvC7B8q78lVo-NEPC" name="Page-1">
    <mxGraphModel dx="2066" dy="1163" grid="1" gridSize="10" guides="1" tooltips="1" connect="1" arrows="1" fold="1" page="1" pageScale="1" pageWidth="1169" pageHeight="827" math="0" shadow="0">
      <root>
        <mxCell id="0" />
        <mxCell id="1" parent="0" />
        <mxCell id="FMwujlGAhhQHbIVf7Efx-1" value="Local Variable Table" style="rounded=0;whiteSpace=wrap;html=1;" vertex="1" parent="1">
          <mxGeometry x="400" y="200" width="200" height="40" as="geometry" />
        </mxCell>
        <mxCell id="FMwujlGAhhQHbIVf7Efx-2" value="Operand Stack" style="rounded=0;whiteSpace=wrap;html=1;" vertex="1" parent="1">
          <mxGeometry x="400" y="280" width="200" height="40" as="geometry" />
        </mxCell>
        <mxCell id="FMwujlGAhhQHbIVf7Efx-3" value="Reference to Runtime Constant Pool" style="rounded=0;whiteSpace=wrap;html=1;" vertex="1" parent="1">
          <mxGeometry x="400" y="360" width="200" height="40" as="geometry" />
        </mxCell>
        <mxCell id="FMwujlGAhhQHbIVf7Efx-4" value="Return Address" style="rounded=0;whiteSpace=wrap;html=1;" vertex="1" parent="1">
          <mxGeometry x="400" y="440" width="200" height="40" as="geometry" />
        </mxCell>
        <mxCell id="FMwujlGAhhQHbIVf7Efx-6" value="..." style="rounded=0;whiteSpace=wrap;html=1;" vertex="1" parent="1">
          <mxGeometry x="400" y="520" width="200" height="40" as="geometry" />
        </mxCell>
        <mxCell id="FMwujlGAhhQHbIVf7Efx-11" style="edgeStyle=orthogonalEdgeStyle;rounded=0;orthogonalLoop=1;jettySize=auto;html=1;exitX=0.1;exitY=0.5;exitDx=0;exitDy=0;exitPerimeter=0;entryX=1;entryY=0.5;entryDx=0;entryDy=0;strokeWidth=2;strokeColor=#66B2FF;" edge="1" parent="1" source="FMwujlGAhhQHbIVf7Efx-7" target="FMwujlGAhhQHbIVf7Efx-8">
          <mxGeometry relative="1" as="geometry" />
        </mxCell>
        <mxCell id="FMwujlGAhhQHbIVf7Efx-7" value="" style="shape=curlyBracket;whiteSpace=wrap;html=1;rounded=1;size=0.5;strokeColor=#66B2FF;strokeWidth=2;" vertex="1" parent="1">
          <mxGeometry x="350" y="380" width="50" height="160" as="geometry" />
        </mxCell>
        <mxCell id="FMwujlGAhhQHbIVf7Efx-8" value="&lt;font color=&quot;#66b2ff&quot;&gt;Frame Data&lt;/font&gt;" style="text;html=1;fillColor=none;align=center;verticalAlign=middle;whiteSpace=wrap;rounded=0;dashed=1;strokeColor=#66B2FF;strokeWidth=2;" vertex="1" parent="1">
          <mxGeometry x="210" y="435" width="120" height="50" as="geometry" />
        </mxCell>
        <mxCell id="FMwujlGAhhQHbIVf7Efx-9" value="" style="rounded=0;whiteSpace=wrap;html=1;strokeWidth=2;fillColor=none;" vertex="1" parent="1">
          <mxGeometry x="360" y="120" width="280" height="470" as="geometry" />
        </mxCell>
        <mxCell id="FMwujlGAhhQHbIVf7Efx-10" value="&lt;font style=&quot;font-size: 20px&quot; color=&quot;#007fff&quot;&gt;Stack Frame&lt;/font&gt;" style="text;html=1;strokeColor=none;fillColor=none;align=center;verticalAlign=middle;whiteSpace=wrap;rounded=0;dashed=1;" vertex="1" parent="1">
          <mxGeometry x="400" y="140" width="200" height="40" as="geometry" />
        </mxCell>
      </root>
    </mxGraphModel>
  </diagram>
</mxfile>
